<?xml version="1.0" encoding="UTF-8"?>
<!-- Generator: Adobe Illustrator 25.2.3, SVG Export Plug-In . SVG Version: 6.00 Build 0)  -->
<svg xmlns="http://www.w3.org/2000/svg" xmlns:xlink="http://www.w3.org/1999/xlink" version="1.1" id="Capa_1" x="0px" y="0px" viewBox="0 0 512 512" style="enable-background:new 0 0 512 512;" xml:space="preserve" width="512" height="512">
<g>
	<path style="fill:#9CF0E7;" d="M258.357,251.791c0,0,7.231-47.414,54.46-47.684c47.229-0.27,57.048,50.876,57.048,50.876   s4.148-15.007,14.654-14.86c10.506,0.147,14.802,23.245,14.802,23.245s11.66-13.99,37.434-6.984   c25.774,7.007,73.027,18.467,73.027,18.467H205.339L258.357,251.791z"/>
	<path style="fill:#9CF0E7;" d="M51.95,117.999c0,0,6.783-38.955,51.086-39.177c44.303-0.222,53.513,41.8,53.513,41.8   s3.891-12.329,13.746-12.209c9.855,0.12,13.885,19.098,13.885,19.098s10.937-11.495,35.115-5.738   c24.177,5.757,68.502,15.173,68.502,15.173H2.218L51.95,117.999z"/>
	<path style="fill:#FFC893;" d="M437.308,450.532c0,11.818-16.924,22.643-45.096,31.078c0.027-0.122,0.027-0.244,0.027-0.367   c0-7.349-13.746-13.312-30.698-13.312c-16.952,0-30.698,5.963-30.698,13.312c0,4.469,5.067,8.408,12.85,10.826   c-29.774,4.537-64.792,7.158-102.281,7.158c-108.204,0-195.91-21.801-195.91-48.696s87.707-48.709,195.91-48.709   C349.601,401.823,437.308,423.637,437.308,450.532z"/>
	<path style="fill:#FF9D3D;" d="M262.058,63.642c11.797,29.381,3.759,53.484-25.809,77.147   c-38.864,30.216-122.961,30.971-122.961,30.971C80.65,154.693,65.713,97.249,97.429,68.271   c16.534-16.935,46.503-27.878,69.393-34.556C208.951,21.777,246.773,23.607,262.058,63.642z"/>
	<g>
		<path style="fill:#FFFFFF;" d="M220.464,97.811c-4.604,6.508-13.756,11.498-21.767,11.37c-1.712-0.029-3.397-0.307-5.028-0.881    c-7.081-2.528-13.083-9.352-15.7-16.339c-0.073-0.157-0.133-0.319-0.192-0.482c-2.511-7.1-0.836-14.99,4.067-20.652    c5.741-6.624,15.977-11.944,24.745-8.757c3.46,1.262,6.69,3.599,9.381,6.584l0.013-0.006    C223.182,76.58,226.624,89.087,220.464,97.811z"/>
		<path style="fill:#AE312F;" d="M220.464,97.811c-13.92,17.222-34.475,15.161-43.502-5.472l0.032,0.076    c-9.264-22.388,23.837-44.35,39.355-24.104l-0.596-0.121c0.012-0.005,0.358-0.156,0.371-0.161    C222.993,75.878,226.879,88.618,220.464,97.811z M220.464,97.811c6.292-9.034,2.212-21.501-4.86-28.819l0.594,0.12    c-0.011,0.006-0.326,0.162-0.338,0.169c-3.454-3.683-8.061-6.805-13.168-7.148c-11.992-0.385-24.569,9.982-24.865,22.275    c-0.178,6.858,3.364,13.286,8.077,18.122C195.507,113.517,212.74,108.529,220.464,97.811z"/>
	</g>
	<path style="fill:#FF9D3D;" d="M165.441,204.038v34.813c0,0-18.867,23.553-42.353,27.927c-4.129,0.774-8.394,0.951-12.727,0.299   c-0.761-0.109-1.508-0.245-2.241-0.394c-6.017-1.209-11.437-3.586-16.218-6.547c-7.729-4.767-13.828-11.084-18.188-16.585   c-5.325-6.71-8.068-12.197-8.068-12.197l15.838-23.811l19.926,1.535L165.441,204.038z"/>
	<path style="fill:#AE312F;" d="M155.816,103.589c0,0-5.156-3.027-6.664-1.549c-1.509,1.478,6.263,6.073,8.52,5.926   c2.258-0.146,4.085-8.823,2.487-9.758C158.561,97.272,155.816,103.589,155.816,103.589z"/>
	<path style="fill:#AE312F;" d="M173.14,129.794c-5.585-7.109-11.316-14.629-15.974-22.392l1.199-0.367   c0.962,8.796,1.936,17.633,3.875,26.283c-3.22-9.412-4.422-19.402-5.483-29.257C161.541,112.738,167.93,121.36,173.14,129.794z"/>
	<path style="fill:#AE312F;" d="M205.389,101.663c5.757-1.72,10.82-6.58,11.962-12.599c1.82-9.59-5.604-19.792-15.276-20.755   c-5.192-0.517-10.996,1.551-14.545,5.416c-9.483,10.328-0.217,27.81,12.981,28.549   C202.138,102.365,203.788,102.142,205.389,101.663z"/>
	<g>
		<path style="fill:#FFFFFF;" d="M134.909,115.275c-0.457,6.894-6.373,12.187-12.34,14.711c-0.827,0.337-1.671,0.603-2.526,0.779    c-10.328,2.157-21.678-7.906-22.338-18.359c-0.086-1.071-0.036-2.158,0.129-3.234c1.487-9.421,12.577-17.884,22.133-16.175    c2.312,0.432,4.35,1.879,6.045,3.439c1.161,1.062,2.304,2.324,3.365,3.718C132.738,104.509,135.252,110.147,134.909,115.275z"/>
		<path style="fill:#AE312F;" d="M134.909,115.275c-0.414,6.251-5.233,11.219-10.474,14.138c-7.906,4.879-18.126,0.795-23.493-6.062    c-3.226-3.975-5.186-9.351-4.344-14.514c2.008-10.212,12.513-17.893,22.752-16.558    C128.126,94.106,135.272,106.761,134.909,115.275z M134.909,115.275c0.294-8.556-6.996-20.253-15.724-21.719    c-9.1-0.642-18.385,6.924-20.058,15.697c-0.756,4.507,0.901,9.12,3.564,12.76c3.982,5.611,11.087,9.775,18.137,8.149    C127.62,128.244,134.294,122.69,134.909,115.275z"/>
	</g>
	<path style="fill:#AE312F;" d="M113.591,124.324c0.523,0.153,6.022,2.98,12.857-2.893c6.835-5.873,1.53-15.664-1.121-18.467   c-2.65-2.803-9.786-7.854-17.727-1.466C99.66,107.886,104.588,121.686,113.591,124.324z"/>
	<path style="fill:#FF9D3D;" d="M125.754,50.229c-0.295,0.423-5.076,7.267-10.69,13.038c-1.928,1.961-3.943,3.804-5.92,5.216   c-3.199,2.299-6.284,3.48-8.624,2.237c-1.015-0.543-2.053-1.377-3.092-2.449c-0.113-0.106-0.232-0.225-0.332-0.337   c-5.132-5.467-9.944-16.146-10.456-22.906c-0.147-1.884,0.045-3.449,0.641-4.52c0.231-0.425,0.523-0.751,0.891-1.018   c5.871-4.162,12.913-3.012,18.651,0.348c3.946,2.306,7.487,5.72,11.663,7.633c0.318,0.138,3.037,1.411,5.069,2.195l0.478,0.174   C124.919,50.173,125.603,50.347,125.754,50.229z"/>
	<path style="fill:#FF9D3D;" d="M241.408,36.053c-0.68,0.142-45.372,9.075-50.624-3.573c-0.5-1.211-0.896-2.471-1.189-3.748   c-2.865-12.188,3.045-26.667,7.743-28.474l0.013-0.006c5.186-1.986,12.028,8.145,18.935,15.277   C223.085,22.57,240.865,35.639,241.408,36.053z"/>
	<path style="fill:#AE312F;" d="M198.576,27.742c-5.15,0.223-8.788,0.964-8.982,0.991c-2.865-12.188,3.045-26.668,7.743-28.474   l0.013-0.006c1.842,2.285,4.024,5.03,5.171,12.575c0.108,0.743,0.262,1.449,0.436,2.13   C205.487,25.064,203.48,27.538,198.576,27.742z"/>
	<path style="fill:#AE312F;" d="M101.276,64.639c-1.579,1.211-3.053,2.373-4.18,3.295c-5.132-5.467-9.944-16.146-10.456-22.906   c-0.147-1.884,0.045-3.449,0.641-4.52c0,0,2.849,0.086,7.096,4.982c1.546,1.788,2.972,3.521,4.448,5.055   C102.322,54.169,106.408,60.663,101.276,64.639z"/>
	<path style="opacity:0.48;fill:#EB4949;" d="M203.042,112.301c-2.213,3.221-1.04,7.647,3.224,8.468   c5.71,1.099,14.217-2.767,16.92-7.981c2.282-4.402-1.993-9.183-6.146-8.736c-3.511,0.378-6.782,1.963-9.568,4.03   C206.177,109.042,204.283,110.496,203.042,112.301z"/>
	<path style="opacity:0.48;fill:#EB4949;" d="M125.368,132.737c3.686,1.3,5.344,5.568,2.38,8.743   c-3.968,4.25-13.12,6.135-18.376,3.512c-4.437-2.214-3.797-8.596-0.177-10.68c3.06-1.762,6.637-2.407,10.107-2.377   C120.915,131.949,123.302,132.008,125.368,132.737z"/>
	<path style="fill:#AE312F;" d="M161.227,35.367c-3.66,6.798-5.007,15.598-6.192,22.292c-0.656,3.67-1.121,7.378-1.456,11.089   c-0.258,2.786-1.44,5.908-4.067,7.321c-3.301,1.774-7.242,0.705-10.058-1.492c-3.528-2.738-5.187-6.949-6.072-11.203   c-1.248-6.021-0.709-12.398,1.15-18.326c0.28-0.115,0.573-0.235,0.866-0.356C144.462,40.981,153.078,37.875,161.227,35.367z"/>
	<path style="fill:#AE312F;" d="M94.409,128.541c-3.5,1.994-7.837,2.188-11.96,1.616c-0.093-0.369-0.185-0.739-0.271-1.128   c-0.087-0.357-0.179-0.726-0.259-1.102c-0.724-3.329-1.305-6.725-1.672-10.173C89.846,121.571,100.964,124.791,94.409,128.541z"/>
	<path style="fill:#AE312F;" d="M96.621,138.716c-1.914,2.367-5.583,3.963-9.223,5.007c-0.39-0.803-0.772-1.624-1.148-2.465   c-0.811-1.844-1.568-3.777-2.245-5.811c-0.023-0.085-0.054-0.15-0.077-0.234C91.956,134.523,99.995,134.542,96.621,138.716z"/>
	<path style="fill:#AE312F;" d="M87.274,112.055c-2.176,0.474-4.81,0.033-7.425-0.813c-0.015-0.136-0.018-0.277-0.02-0.419   c-0.027-2.955,0.121-5.944,0.507-8.933C86.723,106.234,92.319,110.961,87.274,112.055z"/>
	<path style="fill:#AE312F;" d="M179.85,30.507c-0.875,2.042-1.859,4.325-2.544,6.025c-2.159,5.385-3.908,12.437-6.496,14.07   c-5.406,3.421-9.853-1.46-8.144-8.699c0.781-3.3,2.508-6.103,4.156-8.188l0.013-0.006C171.324,32.444,175.654,31.381,179.85,30.507   z"/>
	<path style="fill:#AE312F;" d="M131.567,46.317c-1.634,5.014-2.546,12.771-5.271,14.928c-4.108,3.245-9.05,0.912-7.979-2.412   c1.037-3.228,2.582-6.011,4.033-8.146C125.242,49.197,128.309,47.738,131.567,46.317z"/>
	<path style="opacity:0.48;fill:#AE312F;" d="M103.08,164.437c1.669,1.288,3.333,2.575,5.052,3.775   c0.85,0.611,1.715,1.198,2.597,1.743c0.877,0.533,1.808,1.049,2.702,1.3l0.261,0.074l0.1,0.283c0.292,0.829,0.645,1.683,1.09,2.426   c0.414,0.732,1.09,1.432,1.512,1.34c0.2-0.037,0.266-0.065,0.352-0.417c0.06-0.33,0.028-0.756-0.035-1.173   c-0.133-0.843-0.42-1.723-0.724-2.54l-0.918-2.466l1.94,1.757c0.714,0.647,1.495,1.274,2.291,1.831   c0.798,0.553,1.637,1.072,2.484,1.368c0.418,0.154,0.852,0.225,1.152,0.141c0.342-0.097,0.568-0.256,0.573-0.511   c0.051-0.638-0.565-1.594-1.149-2.268l-0.908-1.048l1.32,0.292c1.619,0.359,3.291,0.586,4.955,0.772   c1.669,0.181,3.35,0.234,5.037,0.085c-1.65,0.402-3.368,0.475-5.069,0.474c-1.708-0.022-3.396-0.191-5.099-0.445l0.412-0.756   c0.386,0.395,0.714,0.795,1.016,1.259c0.28,0.468,0.576,0.987,0.566,1.713c-0.017,0.357-0.181,0.773-0.461,1.022   c-0.134,0.139-0.278,0.246-0.426,0.314c-0.144,0.087-0.297,0.157-0.469,0.19c-0.678,0.187-1.285,0.053-1.812-0.109   c-1.072-0.335-1.972-0.884-2.831-1.469c-0.86-0.59-1.66-1.218-2.447-1.916l1.022-0.709c0.363,0.921,0.631,1.832,0.789,2.831   c0.066,0.502,0.119,1.018,0.01,1.608c-0.044,0.155-0.084,0.307-0.144,0.46c-0.094,0.158-0.167,0.323-0.304,0.461   c-0.279,0.295-0.664,0.454-1.02,0.477c-0.742,0.064-1.333-0.355-1.708-0.731c-0.388-0.396-0.659-0.827-0.909-1.259   c-0.477-0.877-0.831-1.759-1.099-2.706l0.361,0.357c-1.115-0.393-2.002-0.988-2.887-1.594c-0.873-0.615-1.713-1.264-2.533-1.933   C106.115,167.368,104.548,165.954,103.08,164.437z"/>
	<path style="opacity:0.21;fill:#AE312F;" d="M215.97,68.654c-28.961-0.199-37.083,20.642-38.001,23.307   c-0.073-0.157-0.133-0.319-0.192-0.482c-2.511-7.1-0.836-14.99,4.067-20.652c5.741-6.624,15.977-11.944,24.745-8.757   C210.048,63.332,213.279,65.669,215.97,68.654z"/>
	<path style="opacity:0.21;fill:#AE312F;" d="M129.378,100.154c-13.309-1.486-25.645,7.129-31.672,12.252   c-0.086-1.071-0.036-2.158,0.129-3.234c1.487-9.421,12.577-17.884,22.133-16.175c2.312,0.432,4.35,1.879,6.045,3.439   C127.173,97.498,128.316,98.759,129.378,100.154z"/>
	<path style="fill:#AE312F;" d="M251.557,45.549c-16.562,22.755-30.468,11.088-22.508,4.526c5.331-4.402,9.447-10.254,12.131-14.17   C245.213,38.535,248.676,41.748,251.557,45.549z"/>
	<path style="fill:#AE312F;" d="M262.058,63.642l0.043,0.091c0.148,0.455,0.316,0.884,0.472,1.32   c-6.725,6.828-15.885,13.061-25.204,13.192c-3.516,0.049-7.323-1.685-7.621-5.086c-0.11-1.361,0.394-2.802,1.221-4.06   c2.435-3.736,6.96-6.255,10.848-8.573c4.419-2.645,9.033-7.189,12.483-11.096C257.407,54.094,260.016,58.847,262.058,63.642z"/>
	<path style="fill:#AE312F;" d="M264.789,71.179c1.76,5.894,2.61,11.846,2.456,17.822c-5.138,3.487-11.706,4.957-17.81,4.323   c-2.721-0.289-5.553-1.462-6.244-4.378c-0.922-3.856,3.617-6.413,6.504-7.678C257.528,77.844,262.363,73.673,264.789,71.179z"/>
	<path style="fill:#AE312F;" d="M95.326,157.821c2.869-2.846,5.976-5.383,9.14-7.846c3.188-2.431,6.436-4.786,9.922-6.83   c-2.868,2.848-5.974,5.385-9.14,7.846C102.058,153.421,98.811,155.775,95.326,157.821z"/>
	<path style="fill:#AE312F;" d="M89.458,149.721c3.341-2.02,6.839-3.684,10.375-5.261c3.552-1.542,7.142-2.994,10.891-4.088   c-3.34,2.022-6.838,3.687-10.375,5.261C96.796,147.172,93.205,148.624,89.458,149.721z"/>
	<path style="fill:#AE312F;" d="M87.147,137.519c3.889-0.345,7.762-0.301,11.632-0.163c3.867,0.177,7.731,0.451,11.579,1.117   c-3.889,0.348-7.762,0.304-11.632,0.163C94.858,138.457,90.994,138.182,87.147,137.519z"/>
	<path style="fill:#FFFFFF;" d="M200.309,23.316c0,0-2.61,1.008-3.561,0.737c-0.965-0.265,2.893-2.172,2.893-2.172   c-2.332,0.07-4.986-1.472-4.339-1.821c0.654-0.368,3.713,0.271,3.713,0.271c-3.97-2.358-4.716-8.358-1.936-9.24   c1.189-0.379,3.561,1.548,5.878,3.866c2.53,10.106,11.276,14.336,12.694,14.723c-5.903-1.839-12.171-2.143-17.075-1.939   C198.354,25.56,200.309,23.316,200.309,23.316z"/>
	<path style="fill:#FFFFFF;" d="M101.276,64.639c-0.612-2.27,0.238-6.205,0.318-6.544c-0.139,0.144-1.581,1.752-2.634,1.671   c-1.105-0.089,1.343-2.672,1.343-2.672s-2.224,1.257-2.728,0.651c-0.511-0.587,1.922-1.497,1.922-1.497   c-2.124-0.233-7.219-3.337-5.711-5.484c0.985-1.395,3.434-0.805,5.04-0.219c3.497,3.625,7.303,6.107,13.945,5.444   C112.77,55.987,106.408,60.663,101.276,64.639z"/>
	<path style="opacity:0.48;fill:#AE312F;" d="M148.917,111.976c-3.094,2.054-5.561,5.366-6.281,9.361   c-1.043,5.79,0.641,11.935,5.857,14.887c3.237,1.832,6.93,2.106,10.425,1.803c6.698-0.58,13.309-1.63,18.877-5.681   c2.02-1.469,3.878-3.274,5.104-5.589c1.879-3.548,2.093-8.21,0.562-12.222c-1.531-4.012-4.772-7.28-8.496-8.567   c-4.581-1.583-10.153-0.547-14.413,1.102C156.758,108.539,152.318,109.718,148.917,111.976z"/>
	<path style="fill:#AE312F;" d="M220.918,110.925c3.809-1.349,7.702-2.318,11.614-3.195c3.921-0.839,7.863-1.582,11.888-1.943   c-3.809,1.352-7.701,2.321-11.614,3.195C228.885,109.819,224.943,110.562,220.918,110.925z"/>
	<path style="fill:#AE312F;" d="M242,96.082c-3.252,2.161-6.675,3.974-10.139,5.702c-3.482,1.693-7.007,3.298-10.706,4.552   c3.25-2.164,6.674-3.976,10.14-5.702C234.778,98.944,238.303,97.339,242,96.082z"/>
	<path style="fill:#AE312F;" d="M234.152,86.459c-1.97,3.371-4.247,6.504-6.599,9.58c-2.383,3.051-4.843,6.043-7.613,8.795   c1.967-3.373,4.245-6.506,6.599-9.58C228.924,92.204,231.384,89.213,234.152,86.459z"/>
	<g>
		<g>
			<path style="fill:#FF9D3D;" d="M283.519,411.155c-1.603,8.666-4.591,15.199-8.734,20.252c-4.754,5.786-11.03,9.617-18.514,12.456     c-7.281,2.771-15.689,4.605-24.925,6.384c-15.403,2.975-20.456,16.952-23.879,28.429c-2.581,8.666-4.225,15.906-8.68,15.879     c-9.671-0.054-16.694-7.416-11.668-28.891c0.734-3.097,1.712-6.493,2.975-10.201c3.898-11.491,10.826-17.617,18.881-21.054     c7.158-3.042,15.2-3.966,22.765-4.618c5.705-0.489,11.138-0.842,15.729-1.834c11.057-2.391,17.604-13.624,15.852-28.144     c-0.489-4.129-1.657-8.53-3.586-13.067c-2.024-4.809-4.917-9.78-8.775-14.738c-20.212-26.093-13.923-45.055-13.923-45.055     s33.673-27.981,21.815,2.364c-2.635,6.737-2.621,13.094-1.073,19.261c0,0-0.014,0,0,0.014     c1.861,7.457,5.977,14.602,10.418,21.651v0.014C276.619,383.662,286.181,396.756,283.519,411.155z"/>
			<path style="opacity:0.2;fill:#AE312F;" d="M283.519,411.155c-1.603,8.666-4.591,15.199-8.734,20.252     c-4.754,5.786-11.03,9.617-18.514,12.456c-7.281,2.771-15.689,4.605-24.925,6.384c-15.403,2.975-20.456,16.952-23.879,28.429     c-2.581,8.666-4.225,15.906-8.68,15.879c-9.671-0.054-16.694-7.416-11.668-28.891c0.734-3.097,1.712-6.493,2.975-10.201     c3.898-11.491,10.826-17.617,18.881-21.054c7.158-3.042,15.2-3.966,22.765-4.618c5.705-0.489,11.138-0.842,15.729-1.834     c11.057-2.391,17.604-13.624,15.852-28.144c-0.489-4.129-1.657-8.53-3.586-13.067c-2.024-4.809-4.917-9.78-8.775-14.738     c-20.212-26.093-13.923-45.055-13.923-45.055s33.673-27.981,21.815,2.364c-2.635,6.737-2.621,13.094-1.073,19.261     c0,0-0.014,0,0,0.014c1.861,7.457,5.977,14.602,10.418,21.651v0.014C276.619,383.662,286.181,396.756,283.519,411.155z"/>
		</g>
		<path style="fill:#AE312F;" d="M207.467,478.676c-2.581,8.666-4.225,15.906-8.68,15.879c-9.671-0.054-16.694-7.416-11.668-28.891    c3.953,0.339,13.665,2.703,14.113,17.821C201.232,483.485,203.65,480.048,207.467,478.676z"/>
		<path style="fill:#AE312F;" d="M224.786,443.401c-6.955,0.136-12.972-5.691-15.811-8.992c7.158-3.042,15.2-3.966,22.765-4.618    C231.849,435.55,230.857,443.279,224.786,443.401z"/>
		<path style="fill:#AE312F;" d="M274.785,431.407c-4.754,5.786-11.03,9.617-18.514,12.456c0.136-4.917,1.223-10.894,5.366-13.379    C266.635,427.482,271.634,429.506,274.785,431.407z"/>
		<path style="fill:#AE312F;" d="M263.321,399.812c-0.489-4.129-1.657-8.53-3.586-13.067c3.939-0.801,8.245-0.815,9.685,2.336    C270.928,392.383,267.192,396.58,263.321,399.812z"/>
		<path style="fill:#AE312F;" d="M268.198,370.242c-3.6-0.502-8.544-2.296-11.953-7.946c-2.472-4.088-1.019-9.169,1.535-13.705    C259.64,356.048,263.756,363.193,268.198,370.242z"/>
	</g>
	<g>
		<g>
			<path style="fill:#FF9D3D;" d="M167.004,235.764c0-0.422-39.232,20.671-33.748,55.684c5.484,35.013,18.561,50.2,44.294,60.746     c0,0,6.328,14.343,0,28.686c-6.328,14.343-8.437,34.17-2.109,38.388c6.328,4.219,10.124-2.953,12.656-11.39     c2.531-8.437,9.682-35.901,14.538-45.148c6.143-11.698,11.194-25.722,1.492-51.455     C194.424,285.543,167.004,235.764,167.004,235.764z"/>
			<path style="opacity:0.2;fill:#AE312F;" d="M167.004,235.764c0-0.422-39.232,20.671-33.748,55.684     c5.484,35.013,18.561,50.2,44.294,60.746c0,0,6.328,14.343,0,28.686c-6.328,14.343-8.437,34.17-2.109,38.388     c6.328,4.219,10.124-2.953,12.656-11.39c2.531-8.437,9.682-35.901,14.538-45.148c6.143-11.698,11.194-25.722,1.492-51.455     C194.424,285.543,167.004,235.764,167.004,235.764z"/>
		</g>
		<path style="fill:#AE312F;" d="M186.551,412.374c-0.911-1.259-1.502-2.716-1.957-4.19c-0.46-1.48-0.722-3.011-0.889-4.548    c-0.246-3.077-0.035-6.207,0.929-9.143c0.129,1.544,0.15,3.047,0.232,4.546c0.068,1.497,0.171,2.981,0.301,4.461    C185.451,406.463,185.865,409.382,186.551,412.374z"/>
		<path style="opacity:0.48;fill:#AE312F;" d="M177.551,352.195c6.841,7.868,5.961,1.808,3.407-4.165    c1.854,1.782,4.312,4.375,6.843,4.659c0.437-3.424-1.457-7.145-2.356-10.476c2.704,2.732,6.566,4.122,10.424,3.593    c-3.244,0.97-6.875,0.449-9.665-1.531l0.848-0.608c3.146,6.562,4.136,15.31-4.957,7.299l1.129-0.685    C185.929,358.335,181.009,358.847,177.551,352.195z"/>
	</g>
	<path style="fill:#FF9D3D;" d="M372.951,266.086c-3.518,23.832-18.108,57.564-36.294,70.035c-16.599,9.684-25.441,8.435-37.503,0   c-2.594,0.439-14.031,1.936-29.394-3.667c-16.585-6.153-30.087,12.469-52.133,9.657c-22.045-2.812-54.061-35.316-56.859-97.554   c-0.435-9.535-0.625-18.31-0.638-26.311c-0.054-44.349,5.311-65.661,5.311-65.661l93.249-44.227   C319.812,130.124,386.581,188.952,372.951,266.086z"/>
	<path style="fill:#FFC893;" d="M302.631,305.301c0,0-13.916-17.363-34.433-10.35c-9.786,3.345-9.945,8.216-9.507,11.53   c0.47,3.545,2.524,6.553,7.768,6.848c9.332,0.53,23.553,8.163,32.355,22.847c-2.133,0.339-14.045,1.847-29.055-3.721   c-16.585-6.153-30.087,12.469-52.132,9.658c-22.045-2.812-54.061-35.316-56.859-97.554c-0.435-9.535-1.63-26.351-1.643-34.351   c3.043-15.58,12.537-24.437,33.699-32.533c44.906-17.169,90.654,26.99,109.806,73.893   C302.631,251.566,295.568,287.548,302.631,305.301z"/>
	<path style="fill:#FF5555;" d="M191.099,199.95c-1.155,0.435-5.189,1.997-10.948,4.156c-22.032,8.313-69.274,25.55-76.541,22.603   c-9.929-4.034-28.266-51.534-28.864-63.719c-0.041-0.842,0-1.521,0.136-1.996c2.078-7.457,78.579-37.924,94.335-31.893   C188.844,148.836,196.614,197.899,191.099,199.95z"/>
	<path style="opacity:0.48;fill:#AE312F;" d="M348.422,264.087c-2.653-15.447-15.401-48.445-35.265-32.734   c-15.127,18.225-14.488,51.189-10.866,73.579c-4.716-22.305-5.558-56.247,10.014-74.462   C333.087,213.944,346.59,247.547,348.422,264.087z"/>
	<path style="opacity:0.48;fill:#AE312F;" d="M307.596,311.743c-5.924-8.708-14.778-16.387-25.58-17.398   c-9.245-1.478-24.723,1.998-22.455,14.096c2.178,7.396,15.441,0.903,27.557,13.591c5.344,4.733,9.127,11.146,14.623,15.588   c16.415,9.928,35.782,1.313,46.682-12.763c-6.626,8.23-15.311,16.229-26.309,17.423c-7.086,0.521-15.059,0.595-21.035-3.771   c-5.691-4.537-9.384-10.83-14.789-15.576c-12.084-12.569-25.131-5.511-27.845-14.159c-2.576-13.01,13.711-17.08,23.659-15.232   C293.04,294.702,301.99,302.769,307.596,311.743z"/>
	<path style="fill:#AE312F;" d="M269.725,313.642c-0.177-1.154,0.047-2.38,0.597-3.464c0.538-1.099,1.454-2.021,2.53-2.638   c1.098-0.591,2.313-0.843,3.498-0.889c0.592-0.006,1.182,0.064,1.758,0.125c0.572,0.136,1.137,0.268,1.683,0.457   c-0.583,0.094-1.146,0.131-1.703,0.172l-1.635,0.241c-1.057,0.237-2.081,0.509-2.979,1.015   C271.667,309.648,270.412,311.436,269.725,313.642z"/>
	<path style="fill:#6CE1C1;" d="M280.572,117.78c-8.657,10.093-14.607,21.725-17.634,34.69c-3.001,12.825-3.771,26.214-6.515,38.948   c-3.347,15.569-10.183,38.743-29.676,39.269c-21.52,0.59-32.505-20.874-36.327-30.48c1.382-0.487,1.473-0.879,1.854-1.915   c0.417-1.133,0.511-2.726,0.537-4.008c3.014,5.938,15.584,28.157,34.231,25.772c13.722-1.757,16.8-23.046,18.762-33.614   c1.949-10.529,3.181-21.186,5.13-31.728c2.347-12.76,6.887-24.521,14.672-35.011c0.333-0.449,2.809-3.771,5.168-6.528   C273.66,114.445,276.956,115.984,280.572,117.78z"/>
	<path style="opacity:0.48;fill:#AE312F;" d="M233.564,144.253c2.822-3.333,5.72-6.646,8.158-10.263   c-0.119,2.083,1.461,6.65,2.153,1.909c0.265-2.953-0.167-6.112-0.899-8.963c3.782,4.055,7.423,5.982,5.943-1.625   c3.84-2.084,7.328-5.062,9.822-8.689c-2.026,3.911-5.304,7.042-9.028,9.39l0.244-0.553c1.711,5.995-1.799,8.579-6.337,3.872   l1.07-0.612c0.34,3.26,1.506,7.495-0.891,10.151c-2.223,1.001-2.883-2.024-2.882-3.549l0.84,0.252   C239.283,138.718,236.495,141.551,233.564,144.253z"/>
	<path style="fill:#FF9D3D;" d="M94.92,218.134c0,0,11.416-15.968,11.557-22.057c0.141-6.089-6.387-8.913-6.387-8.913   s-1.461-4.615-6.237-6.545c0,0-7.776-12.314-21.741-3.561c-13.965,8.753-13.583,35.321-9.751,45.035   c3.832,9.714,6.647,16.366,14.289,21.141C84.294,248.01,94.92,218.134,94.92,218.134z"/>
	<path style="opacity:0.48;fill:#AE312F;" d="M93.372,179.918c-7.304-10.593-23.305-4.551-28.327,5.257   c-8.424,17.259-4.659,39.366,6.371,54.695c-13.57-15.701-19.304-51.093,1.013-63.513C79.115,172.217,89.188,172.498,93.372,179.918   z"/>
	<path style="opacity:0.48;fill:#AE312F;" d="M93.51,219.971c4.861-8.184,13.165-17.097,11.965-27.128   c-3.077-8.25-14.594-6.36-18.882,0.048c3.826-7.508,16.833-9.473,20.059-0.477C108.353,202.926,99.41,212.161,93.51,219.971z"/>
	<path style="opacity:0.48;fill:#AE312F;" d="M100.091,186.815c-3.419-6.296-10.807-7.366-17.119-5.303   C88.84,177.438,98.289,179.296,100.091,186.815z"/>
	<path style="opacity:0.48;fill:#AE312F;" d="M346.114,254.259c-0.152-1.896,0.019-10.219,3.364-7.979   c1.516,3.307,1.017,6.973,0.665,10.437c-0.451-3.045-0.995-7.294-1.514-9.687C347.048,248.918,346.886,251.891,346.114,254.259z"/>
	<path style="fill:#FF9D3D;" d="M336.168,141.556c-0.408,4.115-0.951,8.15-1.63,11.967c-2.282,12.877-6.139,23.145-12.103,24.911   c-16.531,4.877-36.376-43.561-36.376-43.561s0.082-0.544,0.231-1.522c1.25-7.946,5.352-43.195,11.41-46.889   c6.792-4.157,9.712,1.019,9.712,1.019s0.245-5.162,6.466-6.479c6.805-1.426,9.332,5.46,9.332,5.46s7.104-2.635,11.586,7.009   C337.214,98.66,338.232,121.045,336.168,141.556z"/>
	<path style="opacity:0.48;fill:#AE312F;" d="M268.189,164.329c11.94,15.237,35.974,26.773,53.06,13.097   c14.555-14.549,15.577-37.729,15.566-57.218c1.046,19.751,0.111,43.353-14.732,58.182   C304.558,192.412,279.673,180.673,268.189,164.329z"/>
	<path style="fill:#FFC893;" d="M314.766,93.467c-7.681,0.002-18.054,10.974-13.764,14.33c2.91,2.277,7.687,1.741,10.517-0.368   c0.752-0.561,1.116,0.15,1.561,0.736c2.687,3.545,9.083,3.654,12.091,0.444c2.963-3.162,1.398-7.074-0.972-10.03   C321.911,95.726,318.531,93.467,314.766,93.467z"/>
	<path style="fill:#FFC893;" d="M326.074,89.684c-0.384,0.191-0.642,0.57-0.809,0.965c-0.272,0.644-0.343,1.374-0.179,2.053   c0.075,0.31,0.2,0.613,0.405,0.858c0.186,0.222,0.431,0.389,0.692,0.515c0.771,0.37,1.708,0.377,2.485,0.017   c1.2-0.556,2.338-2.464,1.287-3.662C329.273,89.654,326.938,89.256,326.074,89.684z"/>
	<path style="fill:#FFC893;" d="M300.25,89.984c-0.275,0.329-0.358,0.781-0.352,1.21c0.011,0.699,0.239,1.396,0.663,1.951   c0.193,0.254,0.43,0.48,0.716,0.622c0.26,0.129,0.551,0.183,0.841,0.193c0.855,0.028,1.716-0.343,2.281-0.985   c0.874-0.992,1.148-3.197-0.296-3.87C303.165,88.668,300.868,89.244,300.25,89.984z"/>
	<path style="fill:#FFC893;" d="M312.943,85.524c-0.38,0.715-0.248,1.598,0.042,2.354c0.285,0.743,0.721,1.442,1.34,1.942   c0.619,0.5,1.433,0.785,2.221,0.674c1.251-0.176,2.161-1.254,2.858-2.308c0.141-0.213,0.28-0.432,0.356-0.676   C320.702,84.469,314.28,83.006,312.943,85.524z"/>
	<path style="opacity:0.48;fill:#AE312F;" d="M287.977,121.657c-0.162,4.841-0.545,9.63-0.889,14.425l-1.034,14.401   c-0.668-4.808-0.578-9.678-0.244-14.496C286.197,131.169,286.816,126.365,287.977,121.657z"/>
	<path style="opacity:0.48;fill:#AE312F;" d="M191.099,199.95c-1.155,0.435-5.189,1.997-10.948,4.156   c-7.471-38.114-21.759-65.632-21.759-65.632c-36.029,5.208-71.8,20.499-83.646,24.516c-0.041-0.842,0-1.521,0.136-1.996   c2.078-7.457,78.579-37.924,94.335-31.893C188.844,148.836,196.614,197.899,191.099,199.95z"/>
	<path style="fill:#FF5555;" d="M138.139,199.895c0,0.013-0.014,0.027-0.027,0.013c-0.299,0.122-0.584,0.231-0.883,0.34   c-11.994,4.347-25.129-1.508-29.34-13.108c-3.287-9.06-0.136-18.922,7.118-24.871c2.024-1.684,4.374-3.043,6.995-3.993   c11.994-4.361,25.129,1.508,29.34,13.094C155.443,182.672,149.548,195.236,138.139,199.895z"/>
	<path style="opacity:0.48;fill:#AE312F;" d="M138.322,199.895c0,0.013-0.014,0.027-0.027,0.013   c-0.299,0.122-0.584,0.231-0.883,0.34c-11.994,4.347-25.129-1.508-29.34-13.108c-3.287-9.06-0.136-18.922,7.118-24.871   c2.024-1.684,4.374-3.043,6.995-3.993c11.994-4.361,25.129,1.508,29.34,13.094C155.628,182.672,149.732,195.236,138.322,199.895z"/>
	<path style="opacity:0.48;fill:#AE312F;" d="M138.139,199.895c0,0.013-0.014,0.027-0.027,0.013   c-0.299,0.122-0.584,0.231-0.883,0.34c-1.372,0.503-2.771,0.869-4.157,1.1c-10.731,1.833-21.461-3.939-25.183-14.208   c-3.287-9.06-0.136-18.922,7.118-24.871c0.72-0.394,1.48-0.733,2.268-1.019c2.037-0.747,4.129-1.087,6.221-1.073   c8.422,0.068,16.626,6.017,20.008,15.308C146.845,184.696,144.428,194.421,138.139,199.895z"/>
	<path style="fill:#AE312F;" d="M138.139,199.895c0,0.013-0.014,0.027-0.027,0.013c-0.299,0.122-0.584,0.231-0.883,0.34   c-1.372,0.503-2.771,0.869-4.157,1.1c-9.495,0.204-18.378-5.379-21.706-14.534c-3.287-9.06-0.136-18.921,7.117-24.87   c0.72-0.394,1.48-0.734,2.268-1.019c0.91-0.326,1.82-0.571,2.744-0.747c8.422,0.068,16.626,6.017,20.008,15.308   C146.845,184.696,144.428,194.421,138.139,199.895z"/>
	<path style="opacity:0.48;fill:#AE312F;" d="M210.97,239.87c-7.368,10.345-1.871,18.536,4.618,4.253   c-2.107,7.18-2.16,28.541,4.115,8.917c-0.276,6.989-0.614,15.178,4.372,20.749c-4.656-4.178-5.527-11.038-5.606-16.986l1.076,0.19   c-0.574,2.338-3.225,7.839-5.694,4.007c-1.802-4.306-0.653-9.06-0.026-13.487l1.086,0.367   C208.495,258.804,202.284,249.641,210.97,239.87z"/>
	<path style="fill:#6CE1C1;" d="M120.111,224.456c0,0,13.226,37.132,40.752,21.948l0.579,7.375c0,0-33.478,19.313-45.901-28.19   L120.111,224.456z"/>
	<path style="fill:#AE312F;" d="M358.045,186.534c-1.44,1.82-2.969,3.391-4.64,5.022c-1.874,1.833-3.831,3.64-6.167,4.822   c-2.608,1.318-5.61,1.82-8.489,1.426c-1.182-0.177-2.431-0.53-3.192-1.44c-1.277-1.508-0.747-3.803,0.082-5.582   c2.282-4.809,6.303-8.53,9.63-12.687c1.385-1.739,2.567-3.399,3.518-5.423C352.1,177.059,355.206,181.63,358.045,186.534z"/>
	<path style="fill:#AE312F;" d="M371.063,217.784c-0.625,0.34-1.263,0.666-1.902,0.978c-6.859,3.369-14.357,5.8-22.005,5.596   c-2.486-0.068-5.542-0.951-5.963-3.409c-0.367-2.255,1.834-4.048,3.858-5.148c4.673-2.54,9.766-4.292,14.412-6.886   c2.377-1.331,4.645-2.907,6.574-4.836c0.163-0.163,0.326-0.34,0.462-0.516C368.387,208.317,369.895,213.071,371.063,217.784z"/>
	<path style="fill:#AE312F;" d="M372.951,266.086c-0.978,6.18-2.391,12.116-4.116,17.753c-6.289,0.57-12.687,0-18.758-1.684   c-2.703-0.761-5.854-2.377-5.854-5.189c0-1.63,1.154-3.07,2.526-3.953c3.355-2.132,7.674-1.535,11.641-1.738   C363.619,271.003,368.727,269.156,372.951,266.086z"/>
	<path style="fill:#AE312F;" d="M361.174,303.576c-1.902,3.966-3.912,7.661-5.949,11.03c-1.739-0.665-3.396-1.548-4.985-2.513   c-3.817-2.323-7.281-5.229-10.242-8.585c-0.937-1.06-1.874-2.323-1.78-3.722c0.109-1.589,1.576-2.825,3.124-3.138   c1.548-0.312,3.151,0.095,4.645,0.638c3.341,1.222,6.411,3.097,9.671,4.523C357.385,302.557,359.273,303.25,361.174,303.576z"/>
	<path style="opacity:0.48;fill:#AE312F;" d="M301.332,118.13c6.919,5.941,16.594,3.16,24.127,0   C318.708,123.095,307.187,125.719,301.332,118.13z"/>
	<path style="fill:#AE312F;" d="M336.168,141.556c-0.408,4.115-0.951,8.15-1.63,11.967c-3.165-0.136-6.302-0.829-9.223-2.038   c-1.494-0.611-2.961-1.386-3.994-2.622c-1.019-1.236-1.521-3.015-0.883-4.496c0.964-2.228,3.844-2.771,6.262-2.839   C329.865,141.447,333.016,141.61,336.168,141.556z"/>
	<path style="fill:#AE312F;" d="M99.25,244.625c-0.055,5.882-3.043,11.491-7.349,15.512c-7.729-4.767-13.828-11.084-18.188-16.585   c2.309-1.453,4.523-3.043,6.778-4.55c2.391-1.617,4.89-3.165,7.688-3.817c2.812-0.652,5.99-0.285,8.164,1.616   C98.489,238.703,99.263,241.759,99.25,244.625z"/>
	<path style="fill:#AE312F;" d="M123.088,266.779c-4.129,0.774-8.394,0.951-12.727,0.299c-0.761-0.109-1.508-0.245-2.241-0.394   c0.883-1.834,1.834-3.64,2.853-5.406c0.896-1.589,1.888-3.165,3.314-4.292c1.44-1.114,3.423-1.698,5.107-1.032   c2.608,1.019,3.396,4.265,3.6,7.063C123.088,264.253,123.129,265.516,123.088,266.779z"/>
	<path style="fill:#FF5555;" d="M327.684,70.063c0,0-1.616-24.215,20.128-38.547l34.841,14.801c0,0-18.285,21.564-20.756,45.141   L327.684,70.063z"/>
	<path style="fill:#6CE1C1;" d="M358.935,83.564c0,0,2.828-23.241,16.77-34.714l-27.762-12.604c0,0-16.003,10.345-15.841,31.035   L358.935,83.564z"/>
	<path style="fill:#FF5555;" d="M42.569,326.659l34.083-24.899c0,0,23.578,10.746,33.013,36.431l-27.52,29.354   C82.145,367.546,63.274,337.405,42.569,326.659z"/>
	<path style="fill:#9CF0E7;" d="M52.042,325.966l23.96-17.511c0,0,19.166,7.311,28.476,29.217l-20.22,21.767   C84.258,359.44,68.585,334.48,52.042,325.966z"/>
	<path style="fill:#FF5555;" d="M318.478,399.812l22.257,13.941c0,0,9.409-30.295,38.548-32.508   c25.107-1.906,56.635-13.923,57.099-43.638l-20.894-7.139c0,0-3.069,24.13-30.294,31.094   C357.968,368.528,333.744,362.441,318.478,399.812z"/>
	<path style="fill:#9CF0E7;" d="M338.879,407.246l-15.22-10.584c0,0,6.955-11.455,14.706-18.108l11.742,13.392   C350.107,391.945,343.036,399.182,338.879,407.246z"/>
	<path style="fill:#9CF0E7;" d="M351.75,390.088l-10.992-13.471c0,0,6.904-5.924,21.744-8.407l6.873,11.556   C369.375,379.767,359.8,381.971,351.75,390.088z"/>
	<path style="fill:#9CF0E7;" d="M365.458,368.061l7.885,11.261c0,0,12.765-1.819,22.75-4.177l-9.407-10.281   C386.687,364.864,377.558,366.896,365.458,368.061z"/>
	<path style="fill:#9CF0E7;" d="M389.816,363.31l11.143,10.469c0,0,12.827-4.346,18.049-8.957l-15.983-9.223   C403.025,355.599,397.796,359.845,389.816,363.31z"/>
	<path style="fill:#9CF0E7;" d="M406.211,353.249l16.572,8.183c0,0,8.602-10.58,9.022-20.975l-14.91-4.83   C416.895,335.627,414.821,345.479,406.211,353.249z"/>
	<ellipse style="fill:#FFC893;" cx="113.521" cy="494.555" rx="40.219" ry="17.445"/>
	<ellipse style="fill:#FFC893;" cx="424.977" cy="416.161" rx="16.92" ry="7.339"/>
	<path style="fill:#FFC893;" d="M178.376,506.747c0,2.901-5.422,5.253-12.111,5.253c-6.689,0-12.112-2.352-12.112-5.253   s5.423-5.253,12.112-5.253C172.953,501.493,178.376,503.845,178.376,506.747z"/>
	<path style="opacity:0.2;fill:#AE312F;" d="M330.784,443.403c0,1.593-3.02,2.884-6.746,2.884c-3.726,0-6.746-1.291-6.746-2.884   c0-1.593,3.02-2.884,6.746-2.884C327.763,440.52,330.784,441.811,330.784,443.403z"/>
	<ellipse style="opacity:0.2;fill:#AE312F;" cx="136.317" cy="458.004" rx="6.746" ry="2.884"/>
	<path style="opacity:0.2;fill:#AE312F;" d="M370.888,453.16c0,2.675-5.073,4.844-11.332,4.844c-6.258,0-11.332-2.169-11.332-4.844   c0-2.675,5.073-4.844,11.332-4.844C365.814,448.316,370.888,450.485,370.888,453.16z"/>
	<path style="opacity:0.2;fill:#AE312F;" d="M126.943,434.635c0,2.675-5.073,4.844-11.331,4.844c-6.258,0-11.332-2.169-11.332-4.844   c0-2.675,5.073-4.844,11.332-4.844C121.87,429.791,126.943,431.96,126.943,434.635z"/>
	<path style="fill:#FFFFFF;" d="M116.686,174.03c-0.069,0.831,0.072,1.748,0.681,2.317c0.609,0.568,1.78,0.532,2.134-0.222   c0.122-0.26,0.133-0.557,0.212-0.832c0.242-0.839,1.054-1.352,1.749-1.88c0.663-0.504,1.27-1.089,1.765-1.759   c0.323-0.437,0.603-0.925,0.676-1.463c0.295-2.193-3.074-2.166-4.37-1.359C118.02,169.774,116.824,172.353,116.686,174.03z"/>
	<path style="fill:#FFFFFF;" d="M156.153,147.308c0.628-0.147,1.01-0.784,0.841-1.407c-0.363-1.332-1.042-3.371-1.827-3.502   c-1.173-0.195-8.407,1.822-8.505,2.524c-0.098,0.702,0.684,4.123,1.857,4.026C149.41,148.874,153.997,147.814,156.153,147.308z"/>
	<g>
		<path style="fill:#FF5555;" d="M97.667,150.483c-5.694,4.45-11.286,4.399-11.67,4.489l-1.552-6.182    c4.81-4.348,10.85-3.847,10.85-3.847L97.667,150.483z"/>
		<path style="opacity:0.48;fill:#AE312F;" d="M95.295,144.942c-3.655,3.642-9.157,3.86-10.529,3.86    c-0.205,0-0.321-0.013-0.321-0.013C89.255,144.442,95.295,144.942,95.295,144.942z"/>
	</g>
	<polygon style="fill:#FF9D3D;" points="350.391,147.413 358.082,140.231 356.525,129.824 365.733,134.919 375.149,130.222    373.149,140.553 380.525,148.058 370.082,149.348 365.224,158.682 360.77,149.148  "/>
	<polygon style="fill:#FF9D3D;" points="45.006,279.263 52.697,272.081 51.14,261.674 60.347,266.769 69.764,262.073    67.764,272.404 75.14,279.909 64.697,281.198 59.839,290.533 55.385,280.999  "/>
	<polygon style="fill:#FF9D3D;" points="52.606,304.316 47.623,304.522 44.968,308.745 43.232,304.069 38.396,302.849    42.306,299.752 41.972,294.776 46.125,297.538 50.755,295.683 49.411,300.486  "/>
</g>















</svg>
